<svg xmlns="http://www.w3.org/2000/svg" xmlns:xlink="http://www.w3.org/1999/xlink" width="500" zoomAndPan="magnify" viewBox="0 0 375 374.999991" height="500" preserveAspectRatio="xMidYMid meet" version="1.0"><defs><g/><clipPath id="51d14069ae"><path d="M 131.390625 116.738281 L 243.890625 116.738281 L 243.890625 202.988281 L 131.390625 202.988281 Z M 131.390625 116.738281 " clip-rule="nonzero"/></clipPath></defs><g clip-path="url(#51d14069ae)"><path fill="#ff914d" d="M 162.234375 152.679688 C 160.03125 153.945312 159.257812 156.09375 159.003906 158.570312 L 146.664062 151.449219 L 141.597656 154.367188 L 141.597656 157.488281 L 158.875 167.457031 L 158.875 183.796875 C 158.875 187.175781 161.480469 189.121094 164.457031 190.882812 L 184.171875 202.265625 C 187.089844 203.9375 190.082031 202.652344 193.09375 200.960938 L 212.8125 189.578125 C 215.695312 187.890625 216.078125 184.660156 216.117188 181.207031 L 216.117188 167.457031 L 238.660156 154.441406 C 244.480469 151.082031 245.984375 149.703125 238.660156 145.484375 L 192.691406 118.953125 C 187.753906 116.089844 186.90625 116.292969 181.839844 119.210938 L 136.328125 145.484375 C 129.003906 149.703125 130.527344 151.082031 136.328125 154.441406 L 136.328125 166.816406 C 133.6875 167.878906 133.265625 171.476562 135.613281 173.128906 C 135.300781 173.550781 135.101562 174.085938 135.101562 174.671875 L 135.101562 186.699219 L 140.242188 186.699219 L 140.242188 174.671875 C 140.242188 174.101562 140.058594 173.570312 139.726562 173.128906 C 141.855469 171.644531 141.800781 168.597656 139.578125 167.109375 L 139.011719 166.816406 L 139.011719 152.882812 L 183.96875 126.921875 C 188.082031 124.535156 187.511719 124.921875 192.855469 128.003906 L 192.855469 141.1875 L 190.816406 140.011719 C 187.898438 138.339844 184.90625 139.625 181.894531 141.316406 L 162.214844 152.679688 Z M 216.078125 141.40625 L 227.535156 148.015625 C 230.195312 149.558594 231.207031 149.761719 229.71875 150.621094 L 216.117188 158.480469 L 216.078125 141.386719 Z M 208.351562 150.144531 C 214.113281 153.46875 214.078125 153.78125 208.351562 150.144531 Z M 166.640625 178.34375 L 166.640625 163.96875 C 166.65625 159.894531 167.632812 158.570312 171.027344 156.570312 L 183.089844 149.613281 C 186.523438 147.648438 188.15625 147.484375 191.679688 149.503906 L 200.585938 154.644531 L 200.585938 132.503906 L 208.351562 136.984375 L 208.351562 178.140625 C 208.332031 182.089844 207.671875 183.59375 204.144531 185.652344 L 191.699219 192.847656 L 187.496094 195.269531 L 183.105469 192.738281 L 171.046875 185.78125 C 167.632812 183.796875 166.65625 182.457031 166.65625 178.382812 Z M 166.640625 178.34375 " fill-opacity="1" fill-rule="evenodd"/></g><path fill="#000000" d="M 183.933594 158.058594 L 175.929688 162.683594 C 174.570312 163.472656 174.40625 164.980469 174.386719 166.578125 L 174.386719 176.914062 C 174.386719 178.472656 175.617188 179.371094 176.992188 180.199219 L 177.359375 180.417969 L 185.933594 185.375 L 187.476562 186.257812 L 199.042969 179.574219 C 200.382812 178.804688 200.566406 177.296875 200.585938 175.699219 L 200.585938 163.566406 L 189.019531 156.902344 L 187.476562 156.019531 L 183.914062 158.078125 Z M 183.933594 158.058594 " fill-opacity="1" fill-rule="evenodd"/><g fill="#ff914d" fill-opacity="1"><g transform="translate(129.142961, 230.863542)"><g><path d="M 3.09375 -2.125 C 1.539062 -3.644531 0.765625 -5.566406 0.765625 -7.890625 C 0.765625 -10.210938 1.539062 -12.128906 3.09375 -13.640625 C 4.65625 -15.160156 6.5625 -15.921875 8.8125 -15.921875 C 10.550781 -15.921875 12.097656 -15.457031 13.453125 -14.53125 C 14.816406 -13.601562 15.765625 -12.320312 16.296875 -10.6875 L 11.734375 -10.6875 C 11.140625 -11.832031 10.1875 -12.40625 8.875 -12.40625 C 7.5625 -12.40625 6.53125 -11.992188 5.78125 -11.171875 C 5.03125 -10.359375 4.65625 -9.265625 4.65625 -7.890625 C 4.65625 -6.515625 5.03125 -5.414062 5.78125 -4.59375 C 6.53125 -3.78125 7.5625 -3.375 8.875 -3.375 C 10.1875 -3.375 11.140625 -3.945312 11.734375 -5.09375 L 16.296875 -5.09375 C 15.765625 -3.457031 14.816406 -2.175781 13.453125 -1.25 C 12.097656 -0.320312 10.550781 0.140625 8.8125 0.140625 C 6.5625 0.140625 4.65625 -0.613281 3.09375 -2.125 Z M 3.09375 -2.125 "/></g></g></g><g fill="#ff914d" fill-opacity="1"><g transform="translate(149.719012, 230.863542)"><g><path d="M 11.65625 0 L 10.78125 -2.640625 L 5.140625 -2.640625 L 4.265625 0 L 0.203125 0 L 5.65625 -15.734375 L 10.3125 -15.734375 L 15.734375 0 Z M 6.109375 -5.546875 L 9.8125 -5.546875 L 7.953125 -11.140625 Z M 6.109375 -5.546875 "/></g></g></g><g fill="#ff914d" fill-opacity="1"><g transform="translate(169.154496, 230.863542)"><g><path d="M 19.453125 -15.703125 L 19.453125 0 L 15.625 0 L 15.625 -8.859375 L 11.984375 0 L 9.140625 0 L 5.5 -8.859375 L 5.5 0 L 1.671875 0 L 1.671875 -15.703125 L 6.0625 -15.703125 L 10.578125 -4.875 L 15.0625 -15.703125 Z M 19.453125 -15.703125 "/></g></g></g><g fill="#ff914d" fill-opacity="1"><g transform="translate(193.778449, 230.863542)"><g><path d="M 13.640625 -10.890625 C 13.640625 -9.828125 13.257812 -8.804688 12.5 -7.828125 C 12.09375 -7.316406 11.488281 -6.898438 10.6875 -6.578125 C 9.894531 -6.265625 8.957031 -6.109375 7.875 -6.109375 L 5.5 -6.109375 L 5.5 0 L 1.671875 0 L 1.671875 -15.703125 L 7.875 -15.703125 C 9.6875 -15.703125 11.097656 -15.226562 12.109375 -14.28125 C 13.128906 -13.34375 13.640625 -12.210938 13.640625 -10.890625 Z M 5.5 -9.015625 L 7.875 -9.015625 C 8.457031 -9.015625 8.914062 -9.1875 9.25 -9.53125 C 9.582031 -9.875 9.75 -10.320312 9.75 -10.875 C 9.75 -11.4375 9.578125 -11.894531 9.234375 -12.25 C 8.890625 -12.613281 8.4375 -12.796875 7.875 -12.796875 L 5.5 -12.796875 Z M 5.5 -9.015625 "/></g></g></g><g fill="#ff914d" fill-opacity="1"><g transform="translate(211.536633, 230.863542)"><g><path d="M 1.609375 -6.328125 L 1.609375 -15.703125 L 5.4375 -15.703125 L 5.4375 -6.328125 C 5.4375 -5.390625 5.664062 -4.664062 6.125 -4.15625 C 6.582031 -3.65625 7.257812 -3.40625 8.15625 -3.40625 C 9.050781 -3.40625 9.738281 -3.65625 10.21875 -4.15625 C 10.695312 -4.664062 10.9375 -5.390625 10.9375 -6.328125 L 10.9375 -15.703125 L 14.75 -15.703125 L 14.75 -6.328125 C 14.75 -4.941406 14.425781 -3.742188 13.78125 -2.734375 C 13.132812 -1.734375 12.316406 -1 11.328125 -0.53125 C 10.335938 -0.0703125 9.257812 0.15625 8.09375 0.15625 C 6.269531 0.15625 4.734375 -0.40625 3.484375 -1.53125 C 2.234375 -2.664062 1.609375 -4.265625 1.609375 -6.328125 Z M 1.609375 -6.328125 "/></g></g></g><g fill="#ff914d" fill-opacity="1"><g transform="translate(231.374672, 230.863542)"><g><path d="M 7 -12.90625 C 6.519531 -12.90625 6.125 -12.773438 5.8125 -12.515625 C 5.507812 -12.265625 5.359375 -11.898438 5.359375 -11.421875 C 5.359375 -10.941406 5.5 -10.554688 5.78125 -10.265625 C 6.070312 -9.984375 6.441406 -9.765625 6.890625 -9.609375 C 7.347656 -9.453125 7.851562 -9.300781 8.40625 -9.15625 C 8.96875 -9.007812 9.523438 -8.835938 10.078125 -8.640625 C 10.628906 -8.441406 11.132812 -8.191406 11.59375 -7.890625 C 12.050781 -7.597656 12.421875 -7.175781 12.703125 -6.625 C 12.984375 -6.082031 13.125 -5.429688 13.125 -4.671875 C 13.125 -3.347656 12.582031 -2.210938 11.5 -1.265625 C 10.425781 -0.316406 9.003906 0.15625 7.234375 0.15625 C 5.460938 0.15625 4.035156 -0.265625 2.953125 -1.109375 C 1.878906 -1.960938 1.34375 -3.171875 1.34375 -4.734375 L 5.40625 -4.734375 C 5.507812 -3.484375 6.148438 -2.859375 7.328125 -2.859375 C 7.878906 -2.859375 8.3125 -3.003906 8.625 -3.296875 C 8.9375 -3.585938 9.09375 -3.957031 9.09375 -4.40625 C 9.09375 -4.851562 8.953125 -5.21875 8.671875 -5.5 C 8.390625 -5.78125 8.019531 -6.003906 7.5625 -6.171875 C 7.113281 -6.335938 6.609375 -6.488281 6.046875 -6.625 C 5.484375 -6.769531 4.925781 -6.945312 4.375 -7.15625 C 3.832031 -7.363281 3.332031 -7.613281 2.875 -7.90625 C 2.414062 -8.195312 2.046875 -8.613281 1.765625 -9.15625 C 1.484375 -9.695312 1.34375 -10.34375 1.34375 -11.09375 C 1.34375 -12.550781 1.882812 -13.71875 2.96875 -14.59375 C 4.0625 -15.476562 5.453125 -15.921875 7.140625 -15.921875 C 8.835938 -15.921875 10.207031 -15.535156 11.25 -14.765625 C 12.289062 -13.992188 12.832031 -12.785156 12.875 -11.140625 L 8.71875 -11.140625 C 8.65625 -11.703125 8.472656 -12.132812 8.171875 -12.4375 C 7.867188 -12.75 7.476562 -12.90625 7 -12.90625 Z M 7 -12.90625 "/></g></g></g><g fill="#000000" fill-opacity="1"><g transform="translate(154.022416, 253.723048)"><g><path d="M 4.234375 -7.8125 C 3.941406 -7.8125 3.703125 -7.734375 3.515625 -7.578125 C 3.335938 -7.421875 3.25 -7.195312 3.25 -6.90625 C 3.25 -6.625 3.332031 -6.394531 3.5 -6.21875 C 3.675781 -6.039062 3.898438 -5.90625 4.171875 -5.8125 C 4.453125 -5.71875 4.757812 -5.625 5.09375 -5.53125 C 5.4375 -5.445312 5.773438 -5.34375 6.109375 -5.21875 C 6.441406 -5.101562 6.742188 -4.953125 7.015625 -4.765625 C 7.285156 -4.585938 7.503906 -4.332031 7.671875 -4 C 7.847656 -3.675781 7.9375 -3.285156 7.9375 -2.828125 C 7.9375 -2.023438 7.609375 -1.335938 6.953125 -0.765625 C 6.304688 -0.191406 5.445312 0.09375 4.375 0.09375 C 3.3125 0.09375 2.453125 -0.160156 1.796875 -0.671875 C 1.140625 -1.191406 0.8125 -1.925781 0.8125 -2.875 L 3.28125 -2.875 C 3.34375 -2.113281 3.726562 -1.734375 4.4375 -1.734375 C 4.769531 -1.734375 5.03125 -1.820312 5.21875 -2 C 5.40625 -2.175781 5.5 -2.398438 5.5 -2.671875 C 5.5 -2.941406 5.414062 -3.160156 5.25 -3.328125 C 5.082031 -3.492188 4.859375 -3.628906 4.578125 -3.734375 C 4.304688 -3.835938 4 -3.929688 3.65625 -4.015625 C 3.320312 -4.097656 2.988281 -4.203125 2.65625 -4.328125 C 2.320312 -4.453125 2.015625 -4.601562 1.734375 -4.78125 C 1.460938 -4.957031 1.238281 -5.207031 1.0625 -5.53125 C 0.894531 -5.863281 0.8125 -6.257812 0.8125 -6.71875 C 0.8125 -7.59375 1.140625 -8.296875 1.796875 -8.828125 C 2.453125 -9.367188 3.289062 -9.640625 4.3125 -9.640625 C 5.34375 -9.640625 6.171875 -9.40625 6.796875 -8.9375 C 7.429688 -8.46875 7.765625 -7.734375 7.796875 -6.734375 L 5.28125 -6.734375 C 5.238281 -7.078125 5.125 -7.34375 4.9375 -7.53125 C 4.757812 -7.71875 4.523438 -7.8125 4.234375 -7.8125 Z M 4.234375 -7.8125 "/></g></g></g><g fill="#000000" fill-opacity="1"><g transform="translate(167.510186, 253.723048)"><g><path d="M 1.5 -0.953125 C 0.800781 -1.660156 0.453125 -2.597656 0.453125 -3.765625 C 0.453125 -4.941406 0.800781 -5.878906 1.5 -6.578125 C 2.207031 -7.273438 3.113281 -7.625 4.21875 -7.625 C 5.144531 -7.625 5.925781 -7.394531 6.5625 -6.9375 C 7.195312 -6.488281 7.617188 -5.84375 7.828125 -5 L 5.328125 -5 C 5.109375 -5.445312 4.753906 -5.671875 4.265625 -5.671875 C 3.773438 -5.671875 3.410156 -5.492188 3.171875 -5.140625 C 2.929688 -4.796875 2.8125 -4.335938 2.8125 -3.765625 C 2.8125 -3.203125 2.929688 -2.742188 3.171875 -2.390625 C 3.410156 -2.046875 3.757812 -1.875 4.21875 -1.875 C 4.507812 -1.875 4.734375 -1.921875 4.890625 -2.015625 C 5.054688 -2.117188 5.203125 -2.300781 5.328125 -2.5625 L 7.828125 -2.5625 C 7.617188 -1.75 7.191406 -1.101562 6.546875 -0.625 C 5.898438 -0.144531 5.125 0.09375 4.21875 0.09375 C 3.113281 0.09375 2.207031 -0.253906 1.5 -0.953125 Z M 1.5 -0.953125 "/></g></g></g><g fill="#000000" fill-opacity="1"><g transform="translate(180.362198, 253.723048)"><g><path d="M 5.609375 -2.390625 C 5.941406 -2.710938 6.109375 -3.171875 6.109375 -3.765625 C 6.109375 -4.367188 5.941406 -4.828125 5.609375 -5.140625 C 5.273438 -5.460938 4.890625 -5.625 4.453125 -5.625 C 4.023438 -5.625 3.644531 -5.460938 3.3125 -5.140625 C 2.976562 -4.816406 2.8125 -4.359375 2.8125 -3.765625 C 2.8125 -3.171875 2.976562 -2.710938 3.3125 -2.390625 C 3.644531 -2.066406 4.023438 -1.90625 4.453125 -1.90625 C 4.890625 -1.90625 5.273438 -2.066406 5.609375 -2.390625 Z M 1.453125 -0.984375 C 0.785156 -1.703125 0.453125 -2.625 0.453125 -3.75 C 0.453125 -4.882812 0.785156 -5.8125 1.453125 -6.53125 C 2.128906 -7.257812 2.945312 -7.625 3.90625 -7.625 C 4.863281 -7.625 5.597656 -7.269531 6.109375 -6.5625 L 6.109375 -7.546875 L 8.4375 -7.546875 L 8.4375 0 L 6.109375 0 L 6.109375 -1.09375 C 5.554688 -0.300781 4.8125 0.09375 3.875 0.09375 C 2.9375 0.09375 2.128906 -0.265625 1.453125 -0.984375 Z M 1.453125 -0.984375 "/></g></g></g><g fill="#000000" fill-opacity="1"><g transform="translate(194.539833, 253.723048)"><g><path d="M 1.015625 0 L 1.015625 -10.015625 L 3.328125 -10.015625 L 3.328125 0 Z M 1.015625 0 "/></g></g></g><g fill="#000000" fill-opacity="1"><g transform="translate(203.617886, 253.723048)"><g><path d="M 4.21875 0.09375 C 3.125 0.09375 2.222656 -0.257812 1.515625 -0.96875 C 0.804688 -1.675781 0.453125 -2.613281 0.453125 -3.78125 C 0.453125 -4.957031 0.800781 -5.890625 1.5 -6.578125 C 2.207031 -7.273438 3.113281 -7.625 4.21875 -7.625 C 5.332031 -7.625 6.253906 -7.28125 6.984375 -6.59375 C 7.710938 -5.914062 8.078125 -4.96875 8.078125 -3.75 C 8.078125 -3.488281 8.0625 -3.242188 8.03125 -3.015625 L 2.828125 -3.015625 C 2.867188 -2.679688 3.015625 -2.40625 3.265625 -2.1875 C 3.523438 -1.976562 3.800781 -1.875 4.09375 -1.875 C 4.382812 -1.875 4.601562 -1.90625 4.75 -1.96875 C 4.894531 -2.03125 5 -2.085938 5.0625 -2.140625 C 5.132812 -2.203125 5.222656 -2.300781 5.328125 -2.4375 L 7.828125 -2.4375 C 7.617188 -1.675781 7.1875 -1.0625 6.53125 -0.59375 C 5.882812 -0.132812 5.113281 0.09375 4.21875 0.09375 Z M 5.671875 -4.46875 C 5.628906 -4.820312 5.472656 -5.109375 5.203125 -5.328125 C 4.929688 -5.546875 4.609375 -5.65625 4.234375 -5.65625 C 3.867188 -5.65625 3.5625 -5.546875 3.3125 -5.328125 C 3.0625 -5.109375 2.90625 -4.820312 2.84375 -4.46875 Z M 5.671875 -4.46875 "/></g></g></g><g fill="#000000" fill-opacity="1"><g transform="translate(216.904902, 253.723048)"><g/></g></g></svg>